<?xml version="1.0" encoding="UTF-8"?>
<svg xmlns="http://www.w3.org/2000/svg" xmlns:xlink="http://www.w3.org/1999/xlink" width="64pt" height="64pt" viewBox="0 0 64 64" version="1.1">
<g id="surface7745257">
<path style=" stroke:none;fill-rule:nonzero;fill:rgb(100%,100%,100%);fill-opacity:1;" d="M 32 8 C 24.289062 8 18 14.289062 18 22 C 18 26.789062 20.4375 31.039062 24.125 33.5625 C 16.96875 36.609375 12 43.71875 12 52 L 16 52 C 16 43.070312 23.070312 36 32 36 C 40.929688 36 48 43.070312 48 52 L 52 52 C 52 43.71875 47.03125 36.609375 39.875 33.5625 C 43.5625 31.039062 46 26.789062 46 22 C 46 14.289062 39.710938 8 32 8 Z M 32 12 C 37.546875 12 42 16.453125 42 22 C 42 27.546875 37.546875 32 32 32 C 26.453125 32 22 27.546875 22 22 C 22 16.453125 26.453125 12 32 12 Z M 32 12 "/>
</g>
</svg>
